<svg id="visual" viewBox="0 0 900 675" width="900" height="675" xmlns="http://www.w3.org/2000/svg" xmlns:xlink="http://www.w3.org/1999/xlink" version="1.1"><g fill="none" stroke="#A7233A" stroke-width="3"><circle r="24" cx="387" cy="287"></circle><circle r="11" cx="874" cy="20"></circle><circle r="17" cx="892" cy="218"></circle><circle r="10" cx="377" cy="558"></circle><circle r="20" cx="621" cy="561"></circle><circle r="17" cx="310" cy="577"></circle><circle r="12" cx="71" cy="270"></circle><circle r="15" cx="724" cy="316"></circle><circle r="12" cx="415" cy="221"></circle><circle r="17" cx="693" cy="48"></circle><circle r="10" cx="523" cy="460"></circle><circle r="16" cx="515" cy="134"></circle><circle r="20" cx="835" cy="458"></circle><circle r="18" cx="624" cy="25"></circle><circle r="11" cx="246" cy="381"></circle><circle r="17" cx="198" cy="622"></circle><circle r="13" cx="759" cy="500"></circle><circle r="11" cx="407" cy="91"></circle><circle r="10" cx="213" cy="42"></circle><circle r="19" cx="243" cy="459"></circle><circle r="11" cx="665" cy="383"></circle><circle r="11" cx="591" cy="437"></circle><circle r="16" cx="59" cy="549"></circle><circle r="11" cx="54" cy="654"></circle><circle r="19" cx="493" cy="43"></circle><circle r="12" cx="540" cy="392"></circle><circle r="16" cx="193" cy="284"></circle><circle r="11" cx="281" cy="202"></circle><circle r="17" cx="180" cy="183"></circle><circle r="22" cx="369" cy="147"></circle><circle r="16" cx="185" cy="442"></circle><circle r="17" cx="284" cy="146"></circle><circle r="12" cx="796" cy="355"></circle><circle r="15" cx="98" cy="376"></circle><circle r="19" cx="198" cy="527"></circle><circle r="16" cx="710" cy="229"></circle><circle r="16" cx="777" cy="419"></circle><circle r="19" cx="419" cy="4"></circle><circle r="21" cx="38" cy="405"></circle><circle r="10" cx="27" cy="460"></circle><circle r="11" cx="830" cy="152"></circle><circle r="13" cx="451" cy="521"></circle><circle r="17" cx="781" cy="672"></circle><circle r="22" cx="384" cy="464"></circle><circle r="21" cx="691" cy="625"></circle><circle r="20" cx="461" cy="166"></circle><circle r="11" cx="730" cy="129"></circle><circle r="21" cx="679" cy="522"></circle><circle r="18" cx="817" cy="49"></circle><circle r="14" cx="888" cy="659"></circle><circle r="19" cx="271" cy="651"></circle><circle r="12" cx="393" cy="664"></circle><circle r="18" cx="819" cy="209"></circle><circle r="10" cx="60" cy="188"></circle><circle r="12" cx="610" cy="163"></circle><circle r="11" cx="573" cy="308"></circle><circle r="17" cx="428" cy="416"></circle><circle r="13" cx="872" cy="514"></circle><circle r="18" cx="558" cy="85"></circle><circle r="10" cx="129" cy="561"></circle><circle r="11" cx="90" cy="56"></circle><circle r="10" cx="631" cy="618"></circle><circle r="11" cx="847" cy="94"></circle><circle r="16" cx="6" cy="223"></circle><circle r="13" cx="13" cy="168"></circle><circle r="10" cx="896" cy="417"></circle><circle r="18" cx="152" cy="237"></circle><circle r="12" cx="436" cy="351"></circle><circle r="11" cx="468" cy="612"></circle><circle r="17" cx="338" cy="383"></circle><circle r="22" cx="39" cy="64"></circle><circle r="18" cx="248" cy="324"></circle><circle r="21" cx="298" cy="419"></circle><circle r="17" cx="238" cy="585"></circle><circle r="14" cx="670" cy="102"></circle><circle r="17" cx="189" cy="354"></circle><circle r="18" cx="287" cy="77"></circle><circle r="15" cx="50" cy="320"></circle><circle r="20" cx="150" cy="393"></circle></g></svg>