<?xml version="1.0" encoding="UTF-8"?>
<!DOCTYPE svg PUBLIC "-//W3C//DTD SVG 1.1//EN" "http://www.w3.org/Graphics/SVG/1.1/DTD/svg11.dtd">
<svg xmlns="http://www.w3.org/2000/svg" version="1.1" width="429px" height="173px" style="shape-rendering:geometricPrecision; text-rendering:geometricPrecision; image-rendering:optimizeQuality; fill-rule:evenodd; clip-rule:evenodd" xmlns:xlink="http://www.w3.org/1999/xlink">
<g><path style="opacity:0.104" fill="#0a0303" d="M 273.5,44.5 C 285.88,42.1129 295.38,46.1129 302,56.5C 303.174,61.7504 303.841,67.0838 304,72.5C 312.933,64.9789 323.1,62.8122 334.5,66C 337.779,66.9728 340.779,68.4728 343.5,70.5C 344.331,63.8581 344.831,57.1915 345,50.5C 345.833,49 347,47.8333 348.5,47C 355.726,45.4055 363.06,45.0722 370.5,46C 376.025,48.8585 380.192,53.0252 383,58.5C 383.667,82.5 383.667,106.5 383,130.5C 382.215,132.286 381.049,133.786 379.5,135C 372.582,136.551 365.582,136.884 358.5,136C 355.888,135.361 353.554,134.194 351.5,132.5C 336.378,140.201 322.211,138.868 309,128.5C 302.51,137.705 294.176,139.705 284,134.5C 272.413,139.482 261.913,137.815 252.5,129.5C 246.333,138.128 238.5,139.795 229,134.5C 213.651,140.328 200.984,136.661 191,123.5C 190.667,126.5 190.333,129.5 190,132.5C 188.786,134.049 187.286,135.215 185.5,136C 178.167,136.667 170.833,136.667 163.5,136C 161.99,135.15 160.49,134.317 159,133.5C 152.294,138.458 145.294,138.792 138,134.5C 128.095,138.935 118.595,138.268 109.5,132.5C 107.664,133.919 105.664,135.086 103.5,136C 91.5,136.667 79.5,136.667 67.5,136C 61.3333,132.5 56.5,127.667 53,121.5C 52.3333,98.1667 52.3333,74.8333 53,51.5C 54.7282,48.0474 57.5615,46.2141 61.5,46C 74.1672,42.5548 84.3339,46.0548 92,56.5C 93.2783,69.7643 93.945,83.0976 94,96.5C 96.2683,92.9494 98.7683,89.6161 101.5,86.5C 97.044,76.2537 100.044,69.4203 110.5,66C 121.271,63.1725 131.605,64.1725 141.5,69C 143,70.5 144.5,72 146,73.5C 152.504,63.5533 160.837,61.8866 171,68.5C 179.036,63.2418 187.036,63.2418 195,68.5C 207.636,63.1521 220.136,63.3188 232.5,69C 235.349,72.0162 238.349,74.8496 241.5,77.5C 247.206,69.8109 254.872,65.4776 264.5,64.5C 264.334,59.8215 264.501,55.1548 265,50.5C 266.943,47.122 269.776,45.122 273.5,44.5 Z"/></g>
<g><path style="opacity:1" fill="#f26767" d="M 298.5,57.5 C 298.334,67.5056 298.5,77.5056 299,87.5C 299.41,86.0993 299.91,84.766 300.5,83.5C 303.526,74.9801 309.526,69.8134 318.5,68C 330.679,65.8402 340.512,69.6736 348,79.5C 348.333,69.8333 348.667,60.1667 349,50.5C 349.75,49.8742 350.584,49.3742 351.5,49C 358.608,48.0761 365.608,48.4094 372.5,50C 375.011,52.1793 377.178,54.6793 379,57.5C 379.667,81.5 379.667,105.5 379,129.5C 377.933,130.191 376.766,130.691 375.5,131C 369.833,131.667 364.167,131.667 358.5,131C 356.04,129.542 353.873,127.709 352,125.5C 334.732,136.622 319.398,134.289 306,118.5C 303.83,132.503 296.663,135.836 284.5,128.5C 270.982,135.288 259.649,132.621 250.5,120.5C 247.493,133.277 240.493,135.944 229.5,128.5C 219.801,134.183 210.468,133.683 201.5,127C 196.195,122.701 192.028,117.534 189,111.5C 188.51,110.207 188.343,108.873 188.5,107.5C 188.82,104.102 188.487,100.768 187.5,97.5C 186.501,108.146 186.168,118.813 186.5,129.5C 186.389,130.117 186.056,130.617 185.5,131C 178.5,131.667 171.5,131.667 164.5,131C 162.333,129.167 160.167,127.333 158,125.5C 155.557,130.972 151.39,133.138 145.5,132C 142.789,131.227 140.289,130.06 138,128.5C 126.283,134.996 115.95,133.329 107,123.5C 107.053,126.613 105.886,129.113 103.5,131C 91.5,131.667 79.5,131.667 67.5,131C 63.3732,127.698 59.8732,123.865 57,119.5C 56.1669,96.4928 56.3335,73.4928 57.5,50.5C 65.4229,48.006 73.4229,47.8393 81.5,50C 84.343,52.511 86.843,55.3443 89,58.5C 89.4999,72.1626 89.6666,85.8293 89.5,99.5C 92.1667,99.5 94.8333,99.5 97.5,99.5C 98.9618,94.0301 102.295,90.0301 107.5,87.5C 103.985,83.0278 102.818,78.0278 104,72.5C 105.8,70.683 107.966,69.5163 110.5,69C 126.902,63.797 139.735,68.297 149,82.5C 147.96,71.5395 152.793,66.7061 163.5,68C 166.215,68.8776 168.549,70.3776 170.5,72.5C 179.558,65.1593 187.725,65.8259 195,74.5C 196.26,71.5719 198.427,69.7386 201.5,69C 219.918,63.1179 233.418,68.6179 242,85.5C 246.482,73.1706 255.315,67.1706 268.5,67.5C 267.903,61.0404 268.57,54.8737 270.5,49C 277.143,47.1072 283.81,47.1072 290.5,49C 293.343,51.6765 296.01,54.5099 298.5,57.5 Z"/></g>
<g><path style="opacity:1" fill="#fffcfc" d="M 60.5,51.5 C 66.561,51.2096 72.561,51.5429 78.5,52.5C 79.4995,69.1533 79.8328,85.82 79.5,102.5C 84.8437,102.334 90.1771,102.501 95.5,103C 96,103.5 96.5,104 97,104.5C 97.9735,110.187 97.4735,115.687 95.5,121C 84.1667,121.667 72.8333,121.667 61.5,121C 60.8742,120.25 60.3742,119.416 60,118.5C 59.1784,96.094 59.345,73.7606 60.5,51.5 Z"/></g>
<g><path style="opacity:1" fill="#fffcfc" d="M 272.5,50.5 C 277.565,50.219 282.565,50.5524 287.5,51.5C 288.5,69.1541 288.833,86.8208 288.5,104.5C 293.578,103.745 295.911,105.912 295.5,111C 293.646,123.721 287.646,125.888 277.5,117.5C 264.85,125.965 254.684,123.632 247,110.5C 243.062,99.4309 243.729,88.7643 249,78.5C 254.725,71.647 261.892,69.3137 270.5,71.5C 271.2,64.4452 271.867,57.4452 272.5,50.5 Z"/></g>
<g><path style="opacity:1" fill="#fffefe" d="M 366.5,51.5 C 368.474,74.2701 369.14,97.2701 368.5,120.5C 363.025,121.489 357.358,121.822 351.5,121.5C 351.5,98.1667 351.5,74.8333 351.5,51.5C 356.5,51.5 361.5,51.5 366.5,51.5 Z"/></g>
<g><path style="opacity:1" fill="#fab1b1" d="M 366.5,51.5 C 367.5,51.5 368.5,51.5 369.5,51.5C 369.831,74.6727 369.498,97.6727 368.5,120.5C 369.14,97.2701 368.474,74.2701 366.5,51.5 Z"/></g>
<g><path style="opacity:0.623" fill="#8d3b3b" d="M 298.5,57.5 C 299.167,66.1667 299.833,74.8333 300.5,83.5C 299.91,84.766 299.41,86.0993 299,87.5C 298.5,77.5056 298.334,67.5056 298.5,57.5 Z"/></g>
<g><path style="opacity:1" fill="#fffcfc" d="M 113.5,89.5 C 117.5,89.5 121.5,89.5 125.5,89.5C 125.784,87.5853 125.451,85.9187 124.5,84.5C 119.226,83.4215 113.893,83.4215 108.5,84.5C 107.989,81.9716 107.322,79.4716 106.5,77C 106.7,74.463 108.033,72.7963 110.5,72C 137.405,66.4105 147.739,77.2439 141.5,104.5C 144.044,104.104 146.211,104.771 148,106.5C 149.509,112.395 148.342,117.561 144.5,122C 139.297,122.988 134.963,121.488 131.5,117.5C 123.455,123.34 115.121,123.84 106.5,119C 100.838,112.902 99.0049,105.736 101,97.5C 103.974,92.9317 108.141,90.265 113.5,89.5 Z"/></g>
<g><path style="opacity:1" fill="#fffbfb" d="M 159.5,121.5 C 159.5,110.167 159.5,98.8333 159.5,87.5C 157.833,87.5 156.167,87.5 154.5,87.5C 152.478,83.4623 151.978,79.1289 153,74.5C 155.206,70.8748 158.373,69.7081 162.5,71C 165.295,72.7932 167.795,74.9598 170,77.5C 174.837,70.6539 181.003,68.9873 188.5,72.5C 189.638,77.2873 189.138,81.9539 187,86.5C 185.178,88.8249 183.011,89.1582 180.5,87.5C 178.971,87.5288 177.804,88.1955 177,89.5C 176.5,100.161 176.333,110.828 176.5,121.5C 170.833,121.5 165.167,121.5 159.5,121.5 Z"/></g>
<g><path style="opacity:1" fill="#fffbfb" d="M 207.5,70.5 C 213.232,70.2832 218.899,70.7832 224.5,72C 229.266,74.4294 232.1,78.2627 233,83.5C 233.5,90.4921 233.666,97.4921 233.5,104.5C 240.109,105.258 242.276,108.925 240,115.5C 238.47,121.054 234.97,123.221 229.5,122C 226.827,120.999 224.493,119.499 222.5,117.5C 210.868,125.602 201.034,123.935 193,112.5C 188.469,100.397 192.302,92.5635 204.5,89C 208.486,88.5012 212.486,88.3345 216.5,88.5C 216.714,86.8561 216.38,85.3561 215.5,84C 210.23,83.7949 205.064,83.6282 200,83.5C 198.632,80.2617 198.299,76.9283 199,73.5C 201.87,72.3068 204.704,71.3068 207.5,70.5 Z"/></g>
<g><path style="opacity:1" fill="#fffbfb" d="M 331.5,103.5 C 327.167,103.5 322.833,103.5 318.5,103.5C 318.263,104.791 318.596,105.791 319.5,106.5C 321.056,108.988 323.389,109.988 326.5,109.5C 330.7,109.322 334.7,108.322 338.5,106.5C 341.561,110.012 342.228,114.012 340.5,118.5C 330.86,123.426 321.193,123.592 311.5,119C 301.087,110.416 297.92,99.5826 302,86.5C 308.94,71.629 320.107,67.129 335.5,73C 344.427,78.6659 346.927,86.4992 343,96.5C 340.149,100.506 336.315,102.84 331.5,103.5 Z"/></g>
<g><path style="opacity:1" fill="#f66c6c" d="M 265.5,86.5 C 267.467,86.2606 269.301,86.5939 271,87.5C 271.83,93.5276 271.664,99.5276 270.5,105.5C 266.291,107.468 263.791,106.135 263,101.5C 262.333,97.5 262.333,93.5 263,89.5C 264.045,88.6266 264.878,87.6266 265.5,86.5 Z"/></g>
<g><path style="opacity:1" fill="#f7706f" d="M 321.5,85.5 C 326.575,85.1803 328.408,87.5137 327,92.5C 324.281,93.4438 321.448,93.7771 318.5,93.5C 318.144,90.224 319.144,87.5573 321.5,85.5 Z"/></g>
<g><path style="opacity:1" fill="#fcc7c7" d="M 124.5,84.5 C 125.451,85.9187 125.784,87.5853 125.5,89.5C 121.5,89.5 117.5,89.5 113.5,89.5C 116.962,88.5184 120.629,88.185 124.5,88.5C 124.5,87.1667 124.5,85.8333 124.5,84.5 Z"/></g>
<g><path style="opacity:1" fill="#fcd0d0" d="M 154.5,87.5 C 156.167,87.5 157.833,87.5 159.5,87.5C 159.5,98.8333 159.5,110.167 159.5,121.5C 158.505,110.679 158.172,99.6794 158.5,88.5C 156.901,88.7678 155.568,88.4345 154.5,87.5 Z"/></g>
<g><path style="opacity:0.237" fill="#110505" d="M 151.5,89.5 C 152.794,90.2899 153.961,91.2899 155,92.5C 155.667,97.8333 155.667,103.167 155,108.5C 154.333,107.833 153.667,107.167 153,106.5C 152.742,100.785 152.242,95.1181 151.5,89.5 Z"/></g>
<g><path style="opacity:1" fill="#f66c6b" d="M 119.5,99.5 C 121.167,99.5 122.833,99.5 124.5,99.5C 124.5,102.167 124.5,104.833 124.5,107.5C 118.564,109.06 116.397,106.727 118,100.5C 118.383,99.944 118.883,99.6107 119.5,99.5 Z"/></g>
<g><path style="opacity:1" fill="#faacac" d="M 119.5,99.5 C 121.265,98.5386 123.265,98.2053 125.5,98.5C 125.81,101.713 125.477,104.713 124.5,107.5C 124.5,104.833 124.5,102.167 124.5,99.5C 122.833,99.5 121.167,99.5 119.5,99.5 Z"/></g>
<g><path style="opacity:1" fill="#f77372" d="M 211.5,98.5 C 213.167,98.5 214.833,98.5 216.5,98.5C 216.817,101.572 216.484,104.572 215.5,107.5C 209.487,108.984 207.32,106.651 209,100.5C 209.995,99.9341 210.828,99.2674 211.5,98.5 Z"/></g>
<g><path style="opacity:1" fill="#fcc5c5" d="M 331.5,103.5 C 327.232,103.869 323.232,104.869 319.5,106.5C 318.596,105.791 318.263,104.791 318.5,103.5C 322.833,103.5 327.167,103.5 331.5,103.5 Z"/></g>
<g><path style="opacity:0.404" fill="#3b1a1a" d="M 188.5,107.5 C 187.833,114.833 187.167,122.167 186.5,129.5C 186.168,118.813 186.501,108.146 187.5,97.5C 188.487,100.768 188.82,104.102 188.5,107.5 Z"/></g>
</svg>
