<svg id="visual" viewBox="0 0 1536 60" width="1536" height="60" xmlns="http://www.w3.org/2000/svg" xmlns:xlink="http://www.w3.org/1999/xlink" version="1.1"><path d="M0 37L219 34L439 29L658 29L878 30L1097 36L1317 27L1536 26L1536 0L1317 0L1097 0L878 0L658 0L439 0L219 0L0 0Z" fill="#871400"></path><path d="M0 20L219 32L439 25L658 30L878 22L1097 28L1317 18L1536 18L1536 0L1317 0L1097 0L878 0L658 0L439 0L219 0L0 0Z" fill="#cc4f08"></path><path d="M0 17L219 18L439 24L658 24L878 24L1097 15L1317 22L1536 22L1536 0L1317 0L1097 0L878 0L658 0L439 0L219 0L0 0Z" fill="#f5730a"></path><path d="M0 10L219 15L439 16L658 11L878 12L1097 9L1317 17L1536 15L1536 0L1317 0L1097 0L878 0L658 0L439 0L219 0L0 0Z" fill="#cc4f08"></path><path d="M0 3L219 4L439 4L658 8L878 8L1097 4L1317 9L1536 11L1536 0L1317 0L1097 0L878 0L658 0L439 0L219 0L0 0Z" fill="#871400"></path></svg>